<svg width="32" height="20" viewBox="0 0 32 20" fill="none" xmlns="http://www.w3.org/2000/svg">
<path d="M23.7467 11.1583C26.0939 9.95332 27.6155 8.23319 28 6.35C28.021 6.24056 28.0073 6.12961 27.9597 6.02348C27.9122 5.91735 27.8316 5.81812 27.7226 5.73145C27.6137 5.64479 27.4785 5.57238 27.3247 5.51837C27.171 5.46436 27.0018 5.4298 26.8267 5.41667C26.6516 5.40353 26.4741 5.41208 26.3043 5.44183C26.1344 5.47158 25.9757 5.52194 25.837 5.59003C25.6983 5.65813 25.5825 5.74263 25.4961 5.83871C25.4097 5.93479 25.3544 6.04056 25.3333 6.15C25.0146 7.55524 23.8949 8.84132 22.1802 9.77181C20.4654 10.7023 18.2709 11.2146 16 11.2146C13.7292 11.2146 11.5346 10.7023 9.81987 9.77181C8.10513 8.84132 6.98544 7.55524 6.66668 6.15C6.64567 6.04056 6.59038 5.93479 6.50396 5.83871C6.41754 5.74263 6.30169 5.65813 6.16302 5.59003C6.02435 5.52194 5.86558 5.47158 5.69577 5.44183C5.52596 5.41208 5.34844 5.40353 5.17335 5.41667C4.99825 5.4298 4.82901 5.46436 4.67528 5.51837C4.52156 5.57238 4.38636 5.64479 4.2774 5.73145C4.16845 5.81812 4.08787 5.91735 4.04028 6.02348C3.99268 6.12961 3.979 6.24056 4.00001 6.35C4.38113 8.23195 5.89778 9.9519 8.24001 11.1583L5.17335 13.0917C4.95491 13.2511 4.84077 13.4561 4.85373 13.6659C4.86669 13.8756 5.0058 14.0746 5.24326 14.223C5.48072 14.3714 5.79904 14.4583 6.13461 14.4664C6.47018 14.4745 6.79828 14.4032 7.05335 14.2667L10.5333 12.1C11.8264 12.5084 13.2265 12.7681 14.6667 12.8667V15.8333C14.6667 16.0543 14.8072 16.2663 15.0572 16.4226C15.3073 16.5789 15.6464 16.6667 16 16.6667C16.3536 16.6667 16.6928 16.5789 16.9428 16.4226C17.1929 16.2663 17.3333 16.0543 17.3333 15.8333V12.8667C18.7735 12.7681 20.1736 12.5084 21.4667 12.1L24.9467 14.2667C25.2017 14.4032 25.5299 14.4745 25.8654 14.4664C26.201 14.4583 26.5193 14.3714 26.7568 14.223C26.9942 14.0746 27.1333 13.8756 27.1463 13.6659C27.1593 13.4561 27.0451 13.2511 26.8267 13.0917L23.7467 11.1583Z" fill="#7A5AF6"/>
</svg>
