<svg width="35" height="35" viewBox="0 0 35 35" fill="none" xmlns="http://www.w3.org/2000/svg">
<path d="M17.5 3.64583C17.7707 3.64598 18.0361 3.7215 18.2664 3.86393C18.4966 4.00637 18.6827 4.21009 18.8037 4.45229L22.5662 11.9744L30.835 13.176C31.1043 13.2152 31.3574 13.3289 31.5655 13.5043C31.7735 13.6798 31.9284 13.9099 32.0124 14.1688C32.0965 14.4277 32.1064 14.7049 32.0411 14.9691C31.9758 15.2334 31.8379 15.4741 31.6429 15.664L25.6244 21.5323L26.9777 29.8069C27.0212 30.0747 26.9891 30.3494 26.8849 30.6C26.7808 30.8506 26.6089 31.0672 26.3884 31.2254C26.1679 31.3836 25.9076 31.4772 25.6369 31.4955C25.3661 31.5139 25.0956 31.4564 24.8558 31.3294L17.5 27.4269L10.1442 31.3294C9.90432 31.4564 9.63382 31.5139 9.36307 31.4955C9.09233 31.4772 8.83207 31.3836 8.61159 31.2254C8.3911 31.0672 8.21914 30.8506 8.11503 30.6C8.01092 30.3494 7.9788 30.0747 8.02228 29.8069L9.37561 21.5323L3.35707 15.664C3.16208 15.4741 3.02414 15.2334 2.95883 14.9691C2.89352 14.7049 2.90347 14.4277 2.98753 14.1688C3.0716 13.9099 3.22643 13.6798 3.43451 13.5043C3.6426 13.3289 3.89563 13.2152 4.16499 13.176L12.4337 11.9744L16.1962 4.45229C16.3173 4.21009 16.5033 4.00637 16.7336 3.86393C16.9639 3.7215 17.2292 3.64598 17.5 3.64583ZM17.5 8.365L14.7029 13.9592C14.5979 14.1696 14.4436 14.3514 14.2532 14.4893C14.0628 14.6272 13.8418 14.717 13.6092 14.751L7.50748 15.6377L11.9554 19.9733C12.1235 20.1371 12.2496 20.339 12.323 20.5619C12.3963 20.7848 12.4148 21.0222 12.3769 21.2537L11.375 27.3744L16.816 24.4869C17.0267 24.375 17.2615 24.3165 17.5 24.3165C17.7385 24.3165 17.9733 24.375 18.1839 24.4869L23.625 27.3744L22.6231 21.2537C22.5854 21.0224 22.604 20.7853 22.6774 20.5627C22.7507 20.3401 22.8767 20.1384 23.0446 19.9748L27.4925 15.6377L21.3923 14.751C21.1596 14.717 20.9387 14.6272 20.7482 14.4893C20.5578 14.3514 20.4035 14.1696 20.2985 13.9592L17.5 8.365Z" fill="#FFDC61"/>
</svg>
