<svg width="35" height="33" viewBox="0 0 35 33" fill="none" xmlns="http://www.w3.org/2000/svg">
<path d="M30.625 0.916668H8.74999C7.97644 0.916668 7.23458 1.22396 6.6876 1.77094C6.14061 2.31792 5.83332 3.05979 5.83332 3.83333V8.20834H2.91666V11.125H5.83332V14.0417H2.91666V16.9583H5.83332V19.875H2.91666V22.7917H5.83332V27.1667C5.83332 27.9402 6.14061 28.6821 6.6876 29.2291C7.23458 29.776 7.97644 30.0833 8.74999 30.0833H30.625C31.0118 30.0833 31.3827 29.9297 31.6562 29.6562C31.9297 29.3827 32.0833 29.0118 32.0833 28.625V2.375C32.0833 1.98823 31.9297 1.61729 31.6562 1.3438C31.3827 1.07031 31.0118 0.916668 30.625 0.916668ZM18.9583 5.29021C21.3617 5.29021 23.3333 7.26042 23.3333 9.66521C23.3291 10.8244 22.8669 11.9349 22.0473 12.7547C21.2278 13.5744 20.1175 14.0371 18.9583 14.0417C16.5564 14.0417 14.5833 12.0685 14.5833 9.66521C14.5833 7.26042 16.5564 5.29021 18.9583 5.29021ZM27.7083 24.25H10.2083V23.1563C10.2083 19.9202 14.1531 16.5938 18.9583 16.5938C23.7635 16.5938 27.7083 19.9202 27.7083 23.1563V24.25Z" fill="#ABFF68"/>
</svg>
