<svg width="35" height="34" viewBox="0 0 35 34" fill="none" xmlns="http://www.w3.org/2000/svg">
<path d="M11.6667 14.6917H10.8208C9.66658 14.6499 8.51605 14.8459 7.44067 15.2674C6.36529 15.6888 5.388 16.3268 4.56945 17.1417L4.33612 17.4139V25.4639H8.30279V20.8944L8.83751 20.2917L9.08056 20.0097C10.3463 18.7094 11.9222 17.7525 13.6597 17.2292C12.7898 16.5672 12.1037 15.6937 11.6667 14.6917Z" fill="#FF6D6D"/>
<path d="M30.4695 17.1125C29.6509 16.2976 28.6736 15.6596 27.5982 15.2382C26.5229 14.8167 25.3723 14.6208 24.2181 14.6625C23.864 14.6635 23.5103 14.683 23.1583 14.7208C22.7132 15.6609 22.0458 16.4784 21.2139 17.1028C23.0689 17.616 24.7493 18.6242 26.075 20.0194L26.3181 20.2917L26.8431 20.8944V25.4736H30.6736V17.3847L30.4695 17.1125Z" fill="#FF6D6D"/>
<path d="M10.7917 12.7958H11.093C10.953 11.5934 11.164 10.3762 11.7005 9.29106C12.237 8.20593 13.0762 7.29928 14.1167 6.68056C13.7395 6.10437 13.2192 5.63601 12.6066 5.32134C11.994 5.00667 11.3103 4.85648 10.6222 4.88547C9.93419 4.91447 9.26547 5.12165 8.68156 5.48674C8.09765 5.85184 7.61857 6.36231 7.29122 6.96819C6.96388 7.57407 6.79949 8.25457 6.81417 8.94307C6.82884 9.63156 7.02207 10.3044 7.37493 10.8958C7.7278 11.4872 8.22819 11.9768 8.82713 12.3167C9.42607 12.6566 10.103 12.8351 10.7917 12.8347V12.7958Z" fill="#FF6D6D"/>
<path d="M23.7514 12.0667C23.7632 12.2901 23.7632 12.514 23.7514 12.7375C23.9379 12.7671 24.1264 12.7833 24.3153 12.7861H24.5C25.1856 12.7496 25.8501 12.5361 26.4287 12.1665C27.0074 11.7969 27.4804 11.2838 27.8019 10.6771C28.1234 10.0704 28.2822 9.39079 28.2631 8.70446C28.2439 8.01813 28.0474 7.34845 27.6926 6.76062C27.3378 6.17279 26.8369 5.68685 26.2385 5.3501C25.6402 5.01334 24.9649 4.83726 24.2783 4.83899C23.5917 4.84071 22.9172 5.02019 22.3206 5.35995C21.7239 5.69971 21.2254 6.18817 20.8736 6.77778C21.7535 7.3523 22.4771 8.13627 22.9794 9.05936C23.4816 9.98245 23.7469 11.0158 23.7514 12.0667Z" fill="#FF6D6D"/>
<path d="M17.3736 16.4222C19.7737 16.4222 21.7194 14.4765 21.7194 12.0764C21.7194 9.67625 19.7737 7.73055 17.3736 7.73055C14.9735 7.73055 13.0278 9.67625 13.0278 12.0764C13.0278 14.4765 14.9735 16.4222 17.3736 16.4222Z" fill="#FF6D6D"/>
<path d="M17.6069 18.7361C16.3373 18.6848 15.0703 18.891 13.8824 19.3421C12.6945 19.7932 11.6101 20.48 10.6944 21.3611L10.4514 21.6333V27.7875C10.4552 27.988 10.4984 28.1857 10.5787 28.3694C10.6589 28.5532 10.7745 28.7193 10.919 28.8584C11.0635 28.9974 11.2339 29.1066 11.4206 29.1798C11.6072 29.2529 11.8065 29.2886 12.0069 29.2847H23.1778C23.3782 29.2886 23.5775 29.2529 23.7642 29.1798C23.9508 29.1066 24.1213 28.9974 24.2657 28.8584C24.4102 28.7193 24.5258 28.5532 24.6061 28.3694C24.6863 28.1857 24.7295 27.988 24.7333 27.7875V21.6528L24.5 21.3611C23.5903 20.4773 22.5097 19.7886 21.3244 19.3372C20.1391 18.8858 18.8741 18.6813 17.6069 18.7361Z" fill="#FF6D6D"/>
</svg>
