<svg width="35" height="33" viewBox="0 0 35 33" fill="none" xmlns="http://www.w3.org/2000/svg">
<path d="M17.5 0.1875C13.454 0.236313 9.58754 1.86526 6.7264 4.7264C3.86526 7.58754 2.23631 11.454 2.1875 15.5C2.23631 19.546 3.86526 23.4125 6.7264 26.2736C9.58754 29.1347 13.454 30.7637 17.5 30.8125C21.546 30.7637 25.4125 29.1347 28.2736 26.2736C31.1347 23.4125 32.7637 19.546 32.8125 15.5C32.7637 11.454 31.1347 7.58754 28.2736 4.7264C25.4125 1.86526 21.546 0.236313 17.5 0.1875ZM26.25 16.5938H18.5938V24.25H16.4062V16.5938H8.75V14.4062H16.4062V6.75H18.5938V14.4062H26.25V16.5938Z" fill="#7A5AF6"/>
</svg>
