<svg width="29" height="25" viewBox="0 0 29 25" fill="none" xmlns="http://www.w3.org/2000/svg">
<path d="M14.5 5.5C4.98655 5.5 0 11.54 0 12.5C0 13.4575 4.98655 19.5 14.5 19.5C24.012 19.5 29 13.4575 29 12.5C29 11.54 24.012 5.5 14.5 5.5ZM14.5 17.8837C10.9403 17.8837 8.05475 15.4737 8.05475 12.5C8.05475 9.52625 10.9403 7.11375 14.5 7.11375C18.0597 7.11375 20.9438 9.52625 20.9438 12.5C20.9438 15.4737 18.0597 17.8837 14.5 17.8837ZM14.5 12.5C13.9099 11.9412 15.4614 9.8075 14.5 9.8075C12.7194 9.8075 11.2767 11.0137 11.2767 12.5C11.2767 13.9862 12.7194 15.1925 14.5 15.1925C16.2792 15.1925 17.7234 13.9862 17.7234 12.5C17.7234 11.8162 15.0017 12.9737 14.5 12.5Z" fill="#7A5AF6"/>
</svg>
