<svg width="30" height="30" viewBox="0 0 30 30" fill="none" xmlns="http://www.w3.org/2000/svg">
<path d="M11.3906 26.2617V25.4649C11.4082 25.4004 11.4375 25.3418 11.4492 25.2774C11.707 23.6016 13.1016 22.2774 14.7363 22.1661C16.5644 22.0371 18.1113 23.0801 18.6152 24.7793C18.6797 25.002 18.7265 25.2363 18.7851 25.4648V26.2617C18.7675 26.3145 18.7382 26.3613 18.7324 26.4199C18.4804 27.9668 17.3672 29.1445 15.8437 29.4785C15.7265 29.5019 15.6093 29.5371 15.4922 29.5664H14.6953C14.6425 29.5488 14.5898 29.5195 14.5371 29.5136C13.0136 29.2676 11.8535 28.1836 11.5019 26.6777C11.4668 26.5312 11.4258 26.3965 11.3906 26.2617H11.3906ZM18.7852 3.73837L18.7851 4.5353C18.7675 4.59975 18.7382 4.65835 18.7324 4.7228C18.4687 6.4103 17.0683 7.72866 15.416 7.83412C13.5937 7.95131 12.0527 6.89663 11.5547 5.19155C11.4902 4.97472 11.4433 4.7521 11.3906 4.53527V3.73839C11.4082 3.68566 11.4375 3.63879 11.4492 3.58605C11.7304 2.06262 12.6152 1.06652 14.0918 0.591913C14.2851 0.52746 14.4902 0.492304 14.6894 0.439569H15.4863C15.539 0.457148 15.5918 0.486444 15.6445 0.492304C17.1738 0.744257 18.3281 1.82238 18.6797 3.32824C18.7148 3.46886 18.75 3.60363 18.7852 3.73837ZM18.7851 14.6017V15.3985C18.7675 15.463 18.7382 15.5216 18.7265 15.586C18.4629 17.2677 17.0097 18.6212 15.3691 18.6915C13.5234 18.7735 11.959 17.6603 11.5195 15.9435C11.4726 15.7618 11.4316 15.5802 11.3906 15.3985V14.6017C11.4082 14.5372 11.4375 14.4786 11.4492 14.4142C11.707 12.7325 13.166 11.379 14.8066 11.3028C16.6523 11.215 18.2168 12.3341 18.6562 14.0509C18.7031 14.2384 18.7441 14.42 18.7851 14.6017Z" fill="#7A5AF6"/>
</svg>
