<svg width="27" height="28" viewBox="0 0 27 28" fill="none" xmlns="http://www.w3.org/2000/svg">
<path d="M23.9836 23.3652L17.136 16.2641C18.1986 14.8395 18.7734 13.0977 18.7734 11.2656C18.7734 9.07266 17.9481 7.01641 16.4558 5.46602C14.9634 3.91562 12.9753 3.0625 10.8633 3.0625C8.75127 3.0625 6.76318 3.91836 5.2708 5.46602C3.77578 7.01367 2.95312 9.07266 2.95312 11.2656C2.95312 13.4559 3.77842 15.5176 5.2708 17.0652C6.76318 18.6156 8.74863 19.4688 10.8633 19.4688C12.6299 19.4688 14.3068 18.8727 15.6806 17.7734L22.5281 24.8719C22.5482 24.8927 22.572 24.9092 22.5983 24.9205C22.6245 24.9318 22.6527 24.9376 22.6811 24.9376C22.7095 24.9376 22.7376 24.9318 22.7638 24.9205C22.7901 24.9092 22.8139 24.8927 22.834 24.8719L23.9836 23.6824C24.0037 23.6616 24.0196 23.6369 24.0305 23.6097C24.0414 23.5825 24.047 23.5533 24.047 23.5238C24.047 23.4944 24.0414 23.4652 24.0305 23.438C24.0196 23.4108 24.0037 23.3861 23.9836 23.3652ZM15.0398 15.5969C13.9219 16.7535 12.44 17.3906 10.8633 17.3906C9.28652 17.3906 7.80469 16.7535 6.68672 15.5969C5.57139 14.4375 4.95703 12.9008 4.95703 11.2656C4.95703 9.63047 5.57139 8.09102 6.68672 6.93438C7.80469 5.77773 9.28652 5.14062 10.8633 5.14062C12.44 5.14062 13.9245 5.775 15.0398 6.93438C16.1552 8.09375 16.7695 9.63047 16.7695 11.2656C16.7695 12.9008 16.1552 14.4402 15.0398 15.5969Z" fill="#7A5AF6"/>
</svg>
