<svg width="24" height="24" viewBox="0 0 24 24" fill="none" xmlns="http://www.w3.org/2000/svg">
<path d="M12.815 12.197L5.28299 13.452C5.19639 13.4665 5.11513 13.5035 5.04737 13.5593C4.97961 13.6151 4.92775 13.6878 4.89699 13.77L2.29999 20.728C2.05199 21.368 2.72099 21.978 3.33499 21.67L21.335 12.67C21.4594 12.6076 21.564 12.5119 21.6371 12.3935C21.7102 12.2751 21.7489 12.1387 21.7489 11.9995C21.7489 11.8603 21.7102 11.7239 21.6371 11.6055C21.564 11.4871 21.4594 11.3914 21.335 11.329L3.33499 2.329C2.72099 2.022 2.05199 2.632 2.29999 3.271L4.89799 10.229C4.92875 10.3112 4.98061 10.3839 5.04837 10.4397C5.11613 10.4956 5.19739 10.5325 5.28399 10.547L12.816 11.802C12.863 11.8095 12.9057 11.8335 12.9366 11.8697C12.9675 11.9059 12.9845 11.9519 12.9845 11.9995C12.9845 12.0471 12.9675 12.0931 12.9366 12.1293C12.9057 12.1655 12.863 12.1895 12.816 12.197H12.815Z" fill="#7A5AF6"/>
</svg>
