<svg width="35" height="35" viewBox="0 0 35 35" fill="none" xmlns="http://www.w3.org/2000/svg">
<path d="M17.5 2.91667C9.45874 2.91667 2.91666 9.45875 2.91666 17.5C2.91666 25.5413 9.45874 32.0833 17.5 32.0833C25.5412 32.0833 32.0833 25.5413 32.0833 17.5C32.0833 9.45875 25.5412 2.91667 17.5 2.91667ZM5.83332 17.5C5.83332 16.189 6.06082 14.9304 6.46187 13.7535L8.74999 16.0417L11.6667 18.9583V21.875L14.5833 24.7917L16.0417 26.25V29.066C10.2973 28.3442 5.83332 23.4383 5.83332 17.5ZM26.7312 24.6065C25.7789 23.8394 24.3352 23.3333 23.3333 23.3333V21.875C23.3333 21.1015 23.026 20.3596 22.4791 19.8126C21.9321 19.2656 21.1902 18.9583 20.4167 18.9583H14.5833V14.5833C15.3569 14.5833 16.0987 14.276 16.6457 13.7291C17.1927 13.1821 17.5 12.4402 17.5 11.6667V10.2083H18.9583C19.7319 10.2083 20.4737 9.90104 21.0207 9.35406C21.5677 8.80708 21.875 8.06521 21.875 7.29167V6.69229C26.145 8.42625 29.1667 12.6146 29.1667 17.5C29.1664 20.0735 28.3096 22.5737 26.7312 24.6065Z" fill="#71B1EC"/>
</svg>
